<svg width="145" height="73" viewBox="0 0 145 73" fill="none" xmlns="http://www.w3.org/2000/svg">
<path fill-rule="evenodd" clip-rule="evenodd" d="M15.2777 26.8243L23.2798 37.242V32.526H37.1254C32.2042 32.526 30.2551 29.3443 30.2551 26.2663V4.71672H23.2798V0.000720153H30.2551H35.7898V4.71672V24.7313C35.7898 29.3436 37.1254 32.5253 42.7651 32.5253V37.2412H23.2798H17.329L9.97056 27.6437C9.0576 26.4614 7.49232 25.7774 5.544 27.2801L22.657 10.1578H15.9826L5.544 20.6057C5.544 13.734 5.544 6.87168 5.544 0H0V37.2412H5.544V27.2801L6.71616 26.1093C10.3334 23.3316 13.5461 24.5642 15.2777 26.8236V26.8243ZM57.3178 9.54647C59.6707 9.54647 61.7739 10.1686 63.7748 11.3911C65.7648 12.6252 67.4129 14.2833 68.6045 16.4189C69.7443 18.5436 70.5536 21.1349 70.5536 23.7053C70.5536 24.0465 70.5334 24.3893 70.5125 24.732H64.8634H58.302H49.7614C49.9479 26.9805 50.737 28.9908 52.0315 30.6295C53.514 32.5065 55.2658 33.449 57.3185 33.449C59.3705 33.449 61.1216 32.5065 62.604 30.6295C63.1426 29.9563 63.589 29.2097 63.9411 28.422H69.714C69.4138 29.3234 69.03 30.1838 68.6052 30.9816C67.4547 33.0343 65.7965 34.7961 63.7755 36.0079C61.7645 37.2319 59.6715 37.8633 57.3185 37.8633C54.9555 37.8633 52.8718 37.2312 50.8507 36.0079C48.8391 34.7961 47.1708 33.0343 46.0311 30.9816C44.8913 28.8569 44.082 26.267 44.082 23.706C44.082 21.1363 44.8913 18.5443 46.0311 16.4196C47.2227 14.2841 48.8715 12.6259 50.8507 11.3918C52.861 10.1693 54.9547 9.54719 57.3185 9.54719L57.3178 9.54647ZM50.2279 20.2118H64.3975C64.0123 18.9482 63.4018 17.7869 62.6033 16.7717C61.1208 14.8961 59.3698 13.9522 57.3178 13.9522C55.2651 13.9522 53.514 14.8961 52.0308 16.7717C51.223 17.7876 50.6218 18.9482 50.2272 20.2118H50.2279ZM128.015 21.1356C128.015 18.0561 129.954 14.8745 134.888 14.8745H128.015V10.1585H144.227V14.8745H142.993C135.841 14.8745 133.561 19.0937 133.561 23.4979C133.561 32.526 133.561 28.2139 133.561 37.242H128.015V21.1356ZM98.3319 10.1585L90.5379 37.242H84.7952L76.9997 10.1585H71.2476L79.0524 37.242H84.7952L92.5892 10.1585H98.3319ZM112.273 9.54647C114.636 9.54647 116.73 10.1686 118.739 11.3911C120.72 12.6252 122.367 14.2833 123.56 16.4189C124.7 18.5436 125.508 22.2444 125.508 23.7053C125.508 25.1568 125.487 24.3893 125.467 24.732H119.819H113.268H104.727C104.903 26.9805 105.691 28.9908 106.988 30.6295C108.469 32.5065 110.221 33.449 112.273 33.449C114.325 33.449 116.076 32.5065 117.559 30.6295C118.099 29.9563 118.544 29.2097 118.896 28.422H124.681C124.369 29.3234 123.985 30.1838 123.561 30.9816C122.409 33.0343 120.751 34.7961 118.74 36.0079C116.719 37.2319 114.637 37.854 112.274 37.854C109.911 37.854 107.827 37.2312 105.806 36.0079C103.796 34.7961 102.136 33.0343 100.987 30.9816C99.8468 28.8569 99.0389 26.267 99.0389 23.706C99.0389 21.1363 99.8468 18.5443 100.987 16.4196C102.18 14.2841 103.827 12.6259 105.806 11.3918C107.816 10.1693 109.91 9.54719 112.274 9.54719L112.273 9.54647ZM105.193 20.2118H119.352C118.968 18.9482 118.356 17.7869 117.557 16.7817C116.075 14.8953 114.324 13.9522 112.272 13.9522C110.219 13.9522 108.467 14.8961 106.986 16.7817C106.186 17.7869 105.576 18.9482 105.192 20.2118H105.193ZM98.2476 61.6507C99.9274 67.3948 102.55 72.3376 110.862 72.3376V66.7936C105.286 66.7936 102.002 63.869 99.1289 60.4288L96.092 56.646C99.1289 60.4288 102.02 56.4285 102.84 55.3089L110.551 44.6328H103.679L96.3929 54.7077C94.7132 48.9556 92.0916 44.0208 83.7778 44.0208V49.5568C89.3549 49.5568 92.6403 52.4786 95.5109 55.9195L84.0896 71.7155H87.5722H90.962L98.2469 61.6514L98.2476 61.6507ZM13.2358 44.0208C15.5988 44.0208 17.6933 44.6421 19.7035 45.8654C21.6828 47.0988 23.3316 48.7576 24.5232 50.8917C25.0099 51.814 25.4247 52.8091 25.7566 53.8668H20.0031C19.6301 52.9135 19.1434 52.043 18.522 51.2438C17.0388 49.3682 15.2885 48.4243 13.2358 48.4243C11.1831 48.4243 9.43129 49.3682 7.95025 51.2438C6.45697 53.1309 5.63905 55.504 5.63905 58.1796C5.63905 60.8428 6.45769 63.2167 7.95025 65.1031C9.43129 66.9787 11.1831 67.9219 13.2358 67.9219C15.2885 67.9219 17.0388 66.978 18.522 65.1031C19.2377 64.2002 19.7237 63.185 20.1082 62.0755H25.8495C25.5067 63.2779 25.0726 64.4176 24.5232 65.4544C23.3719 67.5064 21.7145 69.2697 19.7035 70.4807C17.6825 71.7047 15.5995 72.3362 13.2358 72.3362C10.872 72.3362 8.78904 71.704 6.768 70.4807C4.75776 69.269 3.09961 67.5057 1.94905 65.4544C0.807845 63.3297 0 60.7384 0 58.1788C0 55.6077 0.807845 53.0172 1.94905 50.891C3.14065 48.7569 4.78872 47.0973 6.768 45.8647C8.77968 44.6407 10.872 44.02 13.2358 44.02V44.0208ZM70.5428 44.0208C72.9065 44.0208 75.0003 44.6421 77.0105 45.8654C78.9898 47.0988 80.6386 48.7576 81.8302 50.8917C82.97 53.0179 83.7778 55.6077 83.7778 58.1796C83.7778 58.5208 83.7684 58.8636 83.7375 59.2048H78.0992H71.5371H62.9964C63.1735 61.4541 63.9612 63.4651 65.2572 65.1038C66.7397 66.9794 68.4908 67.9226 70.5428 67.9226C72.5955 67.9226 74.3472 66.9787 75.8283 65.1038C76.3683 64.4306 76.8147 63.6839 77.1668 62.8948H82.9491C82.6395 63.797 82.2543 64.6581 81.8302 65.4552C80.6796 67.5071 79.0215 69.2704 77.0105 70.4815C74.9895 71.7055 72.9065 72.3369 70.5428 72.3369C68.1898 72.3369 66.0975 71.7047 64.0858 70.4815C62.0647 69.2697 60.4066 67.5064 59.2553 65.4552C58.1156 63.3304 57.3077 60.7392 57.3077 58.1796C57.3077 55.6084 58.1156 53.0179 59.2553 50.8917C60.4483 48.7576 62.0957 47.098 64.0858 45.8654C66.0852 44.6414 68.1898 44.0208 70.5428 44.0208ZM63.463 54.6876H77.6326C77.238 53.4225 76.6368 52.2604 75.8276 51.2445C74.3465 49.3689 72.5948 48.425 70.542 48.425C68.4908 48.425 66.739 49.3689 65.2565 51.2445C64.458 52.2604 63.846 53.4225 63.4623 54.6876H63.463ZM41.5829 44.0316C43.9366 44.0316 46.0404 44.6529 48.0399 45.8769C50.0206 47.1103 51.6679 48.7684 52.8595 50.8932C53.9993 53.0287 54.8086 55.6092 54.8086 58.181C54.8086 60.7406 53.9993 63.3211 52.8595 65.4566C51.709 67.5086 50.0508 69.2611 48.0399 70.4728C46.0296 71.6968 43.9366 72.3175 41.5829 72.3175C39.2198 72.3175 37.1376 71.6961 35.1259 70.4728C33.1143 69.2611 31.4467 67.5086 30.307 65.4566C29.1658 63.3211 28.3572 60.7406 28.3572 58.181C28.3572 55.6099 29.1665 53.0287 30.307 50.8932C31.4986 48.7684 33.1467 47.1103 35.1259 45.8769C37.1254 44.6529 39.2198 44.0316 41.5829 44.0316ZM41.5829 67.9125C43.6356 67.9125 45.378 66.9794 46.8684 65.093C48.3516 63.2174 49.1703 60.8436 49.1703 58.1803C49.1703 55.5048 48.3516 53.1432 46.8684 51.2553C45.378 49.3797 43.6356 48.4372 41.5829 48.4372C39.5316 48.4372 37.7799 49.3797 36.2974 51.2553C34.8149 53.1424 33.9963 55.5048 33.9963 58.1803C33.9963 60.8436 34.8149 63.2174 36.2974 65.093C37.7799 66.9794 39.5309 67.9125 41.5829 67.9125ZM116.988 44.0107H118.987C119.413 44.0107 119.755 44.1453 120.003 44.4254C120.262 44.6947 120.387 45.0676 120.387 45.5342C120.387 45.846 120.324 46.0944 120.211 46.2808C120.098 46.4673 119.92 46.6236 119.682 46.7474L120.678 48.4581H119.537L118.738 47.0584H118.013V48.4581H116.988V44.0114V44.0107ZM118.987 46.1462C119.091 46.1462 119.185 46.1052 119.257 46.0116C119.321 45.9288 119.36 45.8143 119.36 45.6796V45.3888C119.36 45.234 119.32 45.1195 119.257 45.0367C119.185 44.9539 119.091 44.9128 118.987 44.9128H118.012V46.1462H118.987ZM118.635 51.2985C117.63 51.2985 116.78 51.1012 116.065 50.7067C115.35 50.3244 114.8 49.7534 114.417 49.0068C114.033 48.2709 113.836 47.3896 113.836 46.3543C113.836 45.3276 114.032 44.447 114.417 43.7004C114.8 42.9645 115.35 42.3943 116.065 42.0012C116.78 41.6066 117.63 41.4201 118.635 41.4201C119.64 41.4201 120.491 41.6066 121.206 42.0012C121.921 42.3943 122.471 42.9652 122.854 43.7004C123.238 44.447 123.435 45.3283 123.435 46.3543C123.435 47.3904 123.239 48.2709 122.854 49.0068C122.471 49.7534 121.921 50.3236 121.206 50.7067C120.491 51.1012 119.64 51.2985 118.635 51.2985ZM118.635 50.2711C119.775 50.2711 120.677 49.9615 121.341 49.3394C122.003 48.7166 122.335 47.8886 122.335 46.8417V45.8474C122.335 44.8106 122.003 43.9812 121.341 43.3699C120.677 42.7687 119.775 42.4684 118.635 42.4684C117.506 42.4684 116.614 42.7687 115.95 43.3699C115.288 43.9819 114.955 44.8106 114.955 45.8474V46.8417C114.955 47.8893 115.288 48.7173 115.95 49.3394C116.614 49.9622 117.506 50.2711 118.635 50.2711Z" fill="white"/>
</svg>
