<svg width="268" height="100" viewBox="0 0 268 100" fill="none" xmlns="http://www.w3.org/2000/svg" xmlns:c2pa="http://c2pa.org/manifest"><metadata><c2pa:manifest>AAAWgmp1bWIAAAAeanVtZGMycGEAEQAQgAAAqgA4m3EDYzJwYQAAABZcanVtYgAAAEdqdW1kYzJtYQARABCAAACqADibcQN1cm46YzJwYTplZDU0MTdlZi00ZTE0LTRkMzctYmY5MS03MjIzY2UwN2Q4ZjAAAAADl2p1bWIAAAApanVtZGMyYXMAEQAQgAAAqgA4m3EDYzJwYS5hc3NlcnRpb25zAAAAALxqdW1iAAAARGp1bWRjYm9yABEAEIAAAKoAOJtxE2MycGEuaW5ncmVkaWVudC52MwAAAAAYYzJzaG1licPDm4g1TY8uL953+mMAAABwY2JvcqNpZGM6Zm9ybWF0bWltYWdlL3N2Zyt4bWxqaW5zdGFuY2VJRHgseG1wOmlpZDoxMmFjNTczMi05MDA1LTRjZjQtYWNlMS02Zjk1NDAxY2NmMGFscmVsYXRpb25zaGlwaHBhcmVudE9mAAAB4mp1bWIAAABBanVtZGNib3IAEQAQgAAAqgA4m3ETYzJwYS5hY3Rpb25zLnYyAAAAABhjMnNoMic8RTyK6of9v3amwPLY5gAAAZljYm9yomdhY3Rpb25zgqJmYWN0aW9ua2MycGEub3BlbmVkanBhcmFtZXRlcnOha2luZ3JlZGllbnRzgaJjdXJseC1zZWxmI2p1bWJmPWMycGEuYXNzZXJ0aW9ucy9jMnBhLmluZ3JlZGllbnQudjNkaGFzaFgghBHIssr+OId2xlK7GCOls1J4cKdIowcN6CCa1tiyFz6kZmFjdGlvbngdY29tLmFudGhyb3BpYy5jbGF1ZGUucHJvdmlkZWRqcGFyYW1ldGVyc6F4H2NvbS5hbnRocm9waWMub3JpZ2luLWNvbmZpZGVuY2VndW5rbm93bmtkZXNjcmlwdGlvbnhmQ2xhdWRlIHByb3ZpZGVkIHRoaXMgZmlsZSBhdCB0aGUgcmVxdWVzdCBvZiBhIHVzZXIgYW5kIG1heSBoYXZlIGNyZWF0ZWQgb3IgbW9kaWZpZWQgdGhlIGZpbGUgY29udGVudHMubXNvZnR3YXJlQWdlbnShZG5hbWVmQ2xhdWRlcmFsbEFjdGlvbnNJbmNsdWRlZPUAAADIanVtYgAAAEBqdW1kY2JvcgARABCAAACqADibcRNjMnBhLmhhc2guZGF0YQAAAAAYYzJzaO6680al/0EDqPJ3vmULjOUAAACAY2JvcqVjYWxnZnNoYTI1NmNwYWRNAAAAAAAAAAAAAAAAAGRoYXNoWCCRqNWL2/lQBw6sHwwNxmYji7RsC3ajQ+b5KtBlPwtmgGRuYW1lbmp1bWJmIG1hbmlmZXN0amV4Y2x1c2lvbnOBomVzdGFydBiiZmxlbmd0aBkeBAAAAj5qdW1iAAAAJ2p1bWRjMmNsABEAEIAAAKoAOJtxA2MycGEuY2xhaW0udjIAAAACD2Nib3KlY2FsZ2ZzaGEyNTZpc2lnbmF0dXJleE1zZWxmI2p1bWJmPS9jMnBhL3VybjpjMnBhOmVkNTQxN2VmLTRlMTQtNGQzNy1iZjkxLTcyMjNjZTA3ZDhmMC9jMnBhLnNpZ25hdHVyZWppbnN0YW5jZUlEeCx4bXA6aWlkOjZhYjQ1YTdmLWYwMzUtNGY2NS1hZGIxLTNiNzEyMDA1N2U1MnJjcmVhdGVkX2Fzc2VydGlvbnODomN1cmx4LXNlbGYjanVtYmY9YzJwYS5hc3NlcnRpb25zL2MycGEuaW5ncmVkaWVudC52M2RoYXNoWCCEEciyyv44h3bGUrsYI6WzUnhwp0ijBw3oIJrW2LIXPqJjdXJseCpzZWxmI2p1bWJmPWMycGEuYXNzZXJ0aW9ucy9jMnBhLmFjdGlvbnMudjJkaGFzaFggVin2npwHIBVptnWeHbziRBzeEf1EJsk967gQaTXzw5CiY3VybHgpc2VsZiNqdW1iZj1jMnBhLmFzc2VydGlvbnMvYzJwYS5oYXNoLmRhdGFkaGFzaFggy/UcLMFPzd2szI3nl2kosc3vxUDG2NBJMqfi8zRLhuV0Y2xhaW1fZ2VuZXJhdG9yX2luZm+jZG5hbWVvQW50aHJvcGljIEZpbGVzZ3ZlcnNpb25lMS4wLjBrc3BlY1ZlcnNpb25lMi40LjAAABA4anVtYgAAAChqdW1kYzJjcwARABCAAACqADibcQNjMnBhLnNpZ25hdHVyZQAAABAIY2JvctKEWQISogEmGCFZAgowggIGMIIBjaADAgECAhRA5aAK7sI50L64g/oGQgU9Z1UTADAKBggqhkjOPQQDAzBJMRcwFQYDVQQKEw5BbnRocm9waWMsIFBCQzEuMCwGA1UEAxMlQW50aHJvcGljIENvbnRlbnQgQ3JlZGVudGlhbHMgUm9vdCBDQTAeFw0yNjA4MDcxODQzNTZaFw0yODA4MDYxOTQzNTZaMEQxFzAVBgNVBAoTDkFudGhyb3BpYywgUEJDMSkwJwYDVQQDEyBBbnRocm9waWMgQ2xhdWRlIENvbnRlbnQgU2lnbmluZzBZMBMGByqGSM49AgEGCCqGSM49AwEHA0IABJh6CmvLUBgFFNU0vUKlOVtE6djd17L5SuwX0LemFisBM3dkd/3cyjxFA3Qo5S46fX0/ihY0VZ7mfb9KF703t5OjWDBWMA4GA1UdDwEB/wQEAwIHgDAVBgNVHSUEDjAMBgorBgEEAYPoXgIBMAwGA1UdEwEB/wQCMAAwHwYDVR0jBBgwFoAUzlHiBIFOZFsj+OPEz5o+nMHXXMIwCgYIKoZIzj0EAwMDZwAwZAIwMXMdFJ4BetLLVY7ORuE9noqbbAZOZn/aArXyTwFAZfKrPzxF2vPoJNf1+UCdg1XGAjBwX1zd9WGqYkqmL5SFqw1QySjr1zJfpJM9+1rdDwSPLMOPOjKuiXjoU/pUUeG9RwmhY3BhZFkNngAAAAAAAAAAAAAAAAAAAAAAAAAAAAAAAAAAAAAAAAAAAAAAAAAAAAAAAAAAAAAAAAAAAAAAAAAAAAAAAAAAAAAAAAAAAAAAAAAAAAAAAAAAAAAAAAAAAAAAAAAAAAAAAAAAAAAAAAAAAAAAAAAAAAAAAAAAAAAAAAAAAAAAAAAAAAAAAAAAAAAAAAAAAAAAAAAAAAAAAAAAAAAAAAAAAAAAAAAAAAAAAAAAAAAAAAAAAAAAAAAAAAAAAAAAAAAAAAAAAAAAAAAAAAAAAAAAAAAAAAAAAAAAAAAAAAAAAAAAAAAAAAAAAAAAAAAAAAAAAAAAAAAAAAAAAAAAAAAAAAAAAAAAAAAAAAAAAAAAAAAAAAAAAAAAAAAAAAAAAAAAAAAAAAAAAAAAAAAAAAAAAAAAAAAAAAAAAAAAAAAAAAAAAAAAAAAAAAAAAAAAAAAAAAAAAAAAAAAAAAAAAAAAAAAAAAAAAAAAAAAAAAAAAAAAAAAAAAAAAAAAAAAAAAAAAAAAAAAAAAAAAAAAAAAAAAAAAAAAAAAAAAAAAAAAAAAAAAAAAAAAAAAAAAAAAAAAAAAAAAAAAAAAAAAAAAAAAAAAAAAAAAAAAAAAAAAAAAAAAAAAAAAAAAAAAAAAAAAAAAAAAAAAAAAAAAAAAAAAAAAAAAAAAAAAAAAAAAAAAAAAAAAAAAAAAAAAAAAAAAAAAAAAAAAAAAAAAAAAAAAAAAAAAAAAAAAAAAAAAAAAAAAAAAAAAAAAAAAAAAAAAAAAAAAAAAAAAAAAAAAAAAAAAAAAAAAAAAAAAAAAAAAAAAAAAAAAAAAAAAAAAAAAAAAAAAAAAAAAAAAAAAAAAAAAAAAAAAAAAAAAAAAAAAAAAAAAAAAAAAAAAAAAAAAAAAAAAAAAAAAAAAAAAAAAAAAAAAAAAAAAAAAAAAAAAAAAAAAAAAAAAAAAAAAAAAAAAAAAAAAAAAAAAAAAAAAAAAAAAAAAAAAAAAAAAAAAAAAAAAAAAAAAAAAAAAAAAAAAAAAAAAAAAAAAAAAAAAAAAAAAAAAAAAAAAAAAAAAAAAAAAAAAAAAAAAAAAAAAAAAAAAAAAAAAAAAAAAAAAAAAAAAAAAAAAAAAAAAAAAAAAAAAAAAAAAAAAAAAAAAAAAAAAAAAAAAAAAAAAAAAAAAAAAAAAAAAAAAAAAAAAAAAAAAAAAAAAAAAAAAAAAAAAAAAAAAAAAAAAAAAAAAAAAAAAAAAAAAAAAAAAAAAAAAAAAAAAAAAAAAAAAAAAAAAAAAAAAAAAAAAAAAAAAAAAAAAAAAAAAAAAAAAAAAAAAAAAAAAAAAAAAAAAAAAAAAAAAAAAAAAAAAAAAAAAAAAAAAAAAAAAAAAAAAAAAAAAAAAAAAAAAAAAAAAAAAAAAAAAAAAAAAAAAAAAAAAAAAAAAAAAAAAAAAAAAAAAAAAAAAAAAAAAAAAAAAAAAAAAAAAAAAAAAAAAAAAAAAAAAAAAAAAAAAAAAAAAAAAAAAAAAAAAAAAAAAAAAAAAAAAAAAAAAAAAAAAAAAAAAAAAAAAAAAAAAAAAAAAAAAAAAAAAAAAAAAAAAAAAAAAAAAAAAAAAAAAAAAAAAAAAAAAAAAAAAAAAAAAAAAAAAAAAAAAAAAAAAAAAAAAAAAAAAAAAAAAAAAAAAAAAAAAAAAAAAAAAAAAAAAAAAAAAAAAAAAAAAAAAAAAAAAAAAAAAAAAAAAAAAAAAAAAAAAAAAAAAAAAAAAAAAAAAAAAAAAAAAAAAAAAAAAAAAAAAAAAAAAAAAAAAAAAAAAAAAAAAAAAAAAAAAAAAAAAAAAAAAAAAAAAAAAAAAAAAAAAAAAAAAAAAAAAAAAAAAAAAAAAAAAAAAAAAAAAAAAAAAAAAAAAAAAAAAAAAAAAAAAAAAAAAAAAAAAAAAAAAAAAAAAAAAAAAAAAAAAAAAAAAAAAAAAAAAAAAAAAAAAAAAAAAAAAAAAAAAAAAAAAAAAAAAAAAAAAAAAAAAAAAAAAAAAAAAAAAAAAAAAAAAAAAAAAAAAAAAAAAAAAAAAAAAAAAAAAAAAAAAAAAAAAAAAAAAAAAAAAAAAAAAAAAAAAAAAAAAAAAAAAAAAAAAAAAAAAAAAAAAAAAAAAAAAAAAAAAAAAAAAAAAAAAAAAAAAAAAAAAAAAAAAAAAAAAAAAAAAAAAAAAAAAAAAAAAAAAAAAAAAAAAAAAAAAAAAAAAAAAAAAAAAAAAAAAAAAAAAAAAAAAAAAAAAAAAAAAAAAAAAAAAAAAAAAAAAAAAAAAAAAAAAAAAAAAAAAAAAAAAAAAAAAAAAAAAAAAAAAAAAAAAAAAAAAAAAAAAAAAAAAAAAAAAAAAAAAAAAAAAAAAAAAAAAAAAAAAAAAAAAAAAAAAAAAAAAAAAAAAAAAAAAAAAAAAAAAAAAAAAAAAAAAAAAAAAAAAAAAAAAAAAAAAAAAAAAAAAAAAAAAAAAAAAAAAAAAAAAAAAAAAAAAAAAAAAAAAAAAAAAAAAAAAAAAAAAAAAAAAAAAAAAAAAAAAAAAAAAAAAAAAAAAAAAAAAAAAAAAAAAAAAAAAAAAAAAAAAAAAAAAAAAAAAAAAAAAAAAAAAAAAAAAAAAAAAAAAAAAAAAAAAAAAAAAAAAAAAAAAAAAAAAAAAAAAAAAAAAAAAAAAAAAAAAAAAAAAAAAAAAAAAAAAAAAAAAAAAAAAAAAAAAAAAAAAAAAAAAAAAAAAAAAAAAAAAAAAAAAAAAAAAAAAAAAAAAAAAAAAAAAAAAAAAAAAAAAAAAAAAAAAAAAAAAAAAAAAAAAAAAAAAAAAAAAAAAAAAAAAAAAAAAAAAAAAAAAAAAAAAAAAAAAAAAAAAAAAAAAAAAAAAAAAAAAAAAAAAAAAAAAAAAAAAAAAAAAAAAAAAAAAAAAAAAAAAAAAAAAAAAAAAAAAAAAAAAAAAAAAAAAAAAAAAAAAAAAAAAAAAAAAAAAAAAAAAAAAAAAAAAAAAAAAAAAAAAAAAAAAAAAAAAAAAAAAAAAAAAAAAAAAAAAAAAAAAAAAAAAAAAAAAAAAAAAAAAAAAAAAAAAAAAAAAAAAAAAAAAAAAAAAAAAAAAAAAAAAAAAAAAAAAAAAAAAAAAAAAAAAAAAAAAAAAAAAAAAAAAAAAAAAAAAAAAAAAAAAAAAAAAAAAAAAAAAAAAAAAAAAAAAAAAAAAAAAAAAAAAAAAAAAAAAAAAAAAAAAAAAAAAAAAAAAAAAAAAAAAAAAAAAAAAAAAAAAAAAAAAAAAAAAAAAAAAAAAAAAAAAAAAAAAAAAAAAAAAAAAAAAAAAAAAAAAAAAAAAAAAAAAAAAAAAAAAAAAAAAAAAAAAAAAAAAAAAAAAAAAAAAAAAAAAAAAAAAAAAAAAAAAAAAAAAAAAAAAAAAAAAAAAAAAAAAAAAAAAAAAAAAAAAAAAAAAAAAAAAAAAAAAAAAAAAAAAAAAAAAAAAAAAAAAAAAAAAAAAAAAAAAAAAAAAAAAAAAAAAAAAAAAAAAAAAAAAAAAAAAAAAAAAAAAAAAAAAAAAAAAAAAAAAAAAAAAAAAAAAAAAAAAAAAAAAAAAAAAAAAAAAAAAAAAAAAAAAAAAAAAAAAAAAAAAAAAAAAAAAAAAAAAAAAAAAAAAAAAAAAAAAAAAAAAAAAAAAAAAAAAAAAAAAAAAAAAAAAAAAAAAAAAAAAAAAAAAAAAAAAAAAAAAAAAAAAAAAAAAAAAAAAAAAAAAAAAAAAAAAAAAAAAAAAAAAAAAAAAAAAAAAAAAAAAAAAAAAAAAAAAAAAAAAAAAAAAAAAAAAAAAAAAAAAAAAAAAAAAAAAAAAAAAAAAAAAAAAAAAAAAAAAAAAAAAAAAAAAAAAAAAAAAAAAAAAAAAAAAAAAAAAAAAAAAAAAAAAAAAAAAAAAAAAAAAAAAAAAAAAAAAAAAAAAAAAAAAAAAAAAAAAAAAAAAAAAAAAAAAAAAAAAAAAAAAAAAAAAAAAAAAAAAAAAAAAAAAAAAAAAAAAAAAAAAAAAAAAAAAAAAAAAAAAAAAAAAAAAAAAAAAAAAAAAAAAAAAAAAAAAAAAAAAAAAAAAAAAAAAAAAAAAAAAAAAAAAAAAAAAAAAAAAAAAAAAAAAAAAAAAAAAAAAAAAAAAAAAAAAAAAAAAAAAAAAAAAAAAAAAAAAAAAAAAAAAAAAAAAAAAAAAAAAAAAAAAAAAAAAAAAAAAAAAAAAAAAAAAAAAAAAAAAAAAAAAAAAAAAAAAAAAAAAAAAAAAAAAAAAAAAAAAAAAAAAAAAAAAAAAAAAAAAAAAAAAAAAAAAAAAAAAAAAAAAAAAAAAAAAAAAAAAAAAAAAAAAAAAAAAAAAAAAAAAAAAAAAAAAAAAAAAAAAAAAAAAAAAAAAAAAAAAAAAAAAAAAAAAAAAAAAAAAAAAAAAAAAAAAAAAAAAAAAAAAAAAAAAAAAAAAAAAAAAAAAAAAAAAAAAAAAAAAAAAAAAAAAAAAAAAAAAAAAAAAAAAAAAAAAAAAAAAAAAAAAAAAAAAAAAAAAAAAAAAAAAAAAAAAAAAAAAAAAAAAAAAAAAAAAAAAAAAAAAAAAAAAAAAAAAAAAAAAAAAAAAAAAAAAAAAAAAAAAAAAAAAAAAAAAAAAAAAAAAAAAAAAAAAAAAAAAAAAAAAAAAAAAAAPZYQH8SE1UF5NdMqjlxPLAs9TbokR7WegjjKUtEqzSAn4ne6E7DoX0plQw883Vh1knf0z6vueUDtheTuNEG3nF52MU=</c2pa:manifest></metadata>
<path fill-rule="evenodd" clip-rule="evenodd" d="M139.051 35.8934L147.053 46.3111V41.5951H160.899C155.978 41.5951 154.029 38.4134 154.029 35.3354V13.7858H147.053V9.06981H154.029H159.563V13.7858V33.8004C159.563 38.4127 160.899 41.5943 166.539 41.5943V46.3103H147.053H141.102L133.744 36.7128C132.831 35.5305 131.266 34.8465 129.317 36.3492L146.43 19.2268H139.756L129.317 29.6748C129.317 22.8031 129.317 15.9408 129.317 9.06909H123.773V46.3103H129.317V36.3492L130.49 35.1784C134.107 32.4007 137.32 33.6333 139.051 35.8927V35.8934ZM181.091 18.6156C183.444 18.6156 185.547 19.2376 187.548 20.4602C189.538 21.6943 191.186 23.3524 192.378 25.488C193.518 27.6127 194.327 30.204 194.327 32.7744C194.327 33.1156 194.307 33.4584 194.286 33.8011H188.637H182.075H173.535C173.721 36.0496 174.51 38.0599 175.805 39.6986C177.287 41.5756 179.039 42.5181 181.092 42.5181C183.144 42.5181 184.895 41.5756 186.377 39.6986C186.916 39.0254 187.362 38.2787 187.714 37.4911H193.487C193.187 38.3925 192.803 39.2529 192.379 40.0507C191.228 42.1034 189.57 43.8652 187.549 45.077C185.538 46.301 183.445 46.9324 181.092 46.9324C178.729 46.9324 176.645 46.3003 174.624 45.077C172.613 43.8652 170.944 42.1034 169.804 40.0507C168.665 37.9259 167.855 35.3361 167.855 32.7751C167.855 30.2054 168.665 27.6134 169.804 25.4887C170.996 23.3532 172.645 21.695 174.624 20.4609C176.634 19.2384 178.728 18.6163 181.092 18.6163L181.091 18.6156ZM174.001 29.2809H188.171C187.786 28.0173 187.175 26.856 186.377 25.8408C184.894 23.9652 183.143 23.0212 181.091 23.0212C179.038 23.0212 177.287 23.9652 175.804 25.8408C174.996 26.8567 174.395 28.0173 174.001 29.2809H174.001ZM251.789 30.2047C251.789 27.1252 253.728 23.9436 258.661 23.9436H251.789V19.2276H268V23.9436H266.767C259.614 23.9436 257.335 28.1628 257.335 32.567C257.335 41.5951 257.335 37.283 257.335 46.3111H251.789V30.2047ZM222.105 19.2276L214.311 46.3111H208.569L200.773 19.2276H195.021L202.826 46.3111H208.569L216.363 19.2276H222.105ZM236.046 18.6156C238.41 18.6156 240.503 19.2376 242.512 20.4602C244.493 21.6943 246.14 23.3524 247.333 25.488C248.473 27.6127 249.281 31.3135 249.281 32.7744C249.281 34.2259 249.261 33.4584 249.24 33.8011H243.592H237.042H228.5C228.676 36.0496 229.464 38.0599 230.761 39.6986C232.242 41.5756 233.994 42.5181 236.047 42.5181C238.099 42.5181 239.85 41.5756 241.332 39.6986C241.872 39.0254 242.317 38.2787 242.669 37.4911H248.454C248.143 38.3925 247.759 39.2529 247.335 40.0507C246.183 42.1034 244.525 43.8652 242.514 45.077C240.493 46.301 238.41 46.9231 236.047 46.9231C233.684 46.9231 231.601 46.3003 229.58 45.077C227.569 43.8652 225.91 42.1034 224.76 40.0507C223.62 37.9259 222.812 35.3361 222.812 32.7751C222.812 30.2054 223.62 27.6134 224.76 25.4887C225.953 23.3532 227.6 21.695 229.58 20.4609C231.59 19.2384 233.684 18.6163 236.047 18.6163L236.046 18.6156ZM228.966 29.2809H243.125C242.741 28.0173 242.129 26.856 241.331 25.8508C239.848 23.9644 238.097 23.0212 236.045 23.0212C233.993 23.0212 232.241 23.9652 230.76 25.8508C229.96 26.856 229.349 28.0173 228.965 29.2809H228.966ZM222.021 70.7198C223.701 76.4639 226.324 81.4067 234.635 81.4067V75.8627C229.06 75.8627 225.775 72.9381 222.902 69.4979L219.865 65.715C222.902 69.4979 225.793 65.4976 226.613 64.378L234.324 53.7019H227.453L220.166 63.7768C218.487 58.0247 215.865 53.0899 207.551 53.0899V58.6259C213.128 58.6259 216.414 61.5477 219.284 64.9886L207.863 80.7846H211.346H214.735L222.02 70.7205L222.021 70.7198ZM137.009 53.0899C139.372 53.0899 141.467 53.7112 143.477 54.9345C145.456 56.1679 147.105 57.8267 148.297 59.9608C148.783 60.8831 149.198 61.8782 149.53 62.9358H143.776C143.404 61.9826 142.917 61.1121 142.295 60.3129C140.812 58.4373 139.062 57.4934 137.009 57.4934C134.956 57.4934 133.205 58.4373 131.724 60.3129C130.23 62.2 129.412 64.5731 129.412 67.2486C129.412 69.9119 130.231 72.2858 131.724 74.1722C133.205 76.0478 134.956 76.991 137.009 76.991C139.062 76.991 140.812 76.047 142.295 74.1722C143.011 73.2693 143.497 72.2541 143.882 71.1446H149.623C149.28 72.347 148.846 73.4867 148.297 74.5235C147.145 76.5755 145.488 78.3388 143.477 79.5498C141.456 80.7738 139.373 81.4053 137.009 81.4053C134.645 81.4053 132.562 80.7731 130.541 79.5498C128.531 78.3381 126.873 76.5748 125.722 74.5235C124.581 72.3988 123.773 69.8075 123.773 67.2479C123.773 64.6768 124.581 62.0863 125.722 59.9601C126.914 57.826 128.562 56.1664 130.541 54.9338C132.553 53.7098 134.645 53.0891 137.009 53.0891V53.0899ZM194.316 53.0899C196.68 53.0899 198.774 53.7112 200.784 54.9345C202.763 56.1679 204.412 57.8267 205.604 59.9608C206.743 62.087 207.551 64.6768 207.551 67.2486C207.551 67.5899 207.542 67.9326 207.511 68.2739H201.873H195.311H186.77C186.947 70.5232 187.735 72.5342 189.031 74.1729C190.513 76.0485 192.264 76.9917 194.316 76.9917C196.369 76.9917 198.121 76.0478 199.602 74.1729C200.142 73.4997 200.588 72.753 200.94 71.9639H206.723C206.413 72.8661 206.028 73.7272 205.604 74.5242C204.453 76.5762 202.795 78.3395 200.784 79.5506C198.763 80.7746 196.68 81.406 194.316 81.406C191.963 81.406 189.871 80.7738 187.859 79.5506C185.838 78.3388 184.18 76.5755 183.029 74.5242C181.889 72.3995 181.081 69.8082 181.081 67.2486C181.081 64.6775 181.889 62.087 183.029 59.9608C184.222 57.8267 185.869 56.1671 187.859 54.9345C189.859 53.7105 191.963 53.0899 194.316 53.0899ZM187.236 63.7566H201.406C201.011 62.4916 200.41 61.3295 199.601 60.3136C198.12 58.438 196.368 57.4941 194.315 57.4941C192.264 57.4941 190.512 58.438 189.03 60.3136C188.231 61.3295 187.619 62.4916 187.236 63.7566H187.236ZM165.356 53.1007C167.71 53.1007 169.814 53.722 171.813 54.946C173.794 56.1794 175.441 57.8375 176.633 59.9622C177.773 62.0978 178.582 64.6782 178.582 67.2501C178.582 69.8097 177.773 72.3902 176.633 74.5257C175.482 76.5777 173.824 78.3302 171.813 79.5419C169.803 80.7659 167.71 81.3866 165.356 81.3866C162.993 81.3866 160.911 80.7652 158.899 79.5419C156.888 78.3302 155.22 76.5777 154.08 74.5257C152.939 72.3902 152.131 69.8097 152.131 67.2501C152.131 64.679 152.94 62.0978 154.08 59.9622C155.272 57.8375 156.92 56.1794 158.899 54.946C160.899 53.722 162.993 53.1007 165.356 53.1007ZM165.356 76.9816C167.409 76.9816 169.151 76.0485 170.642 74.1621C172.125 72.2865 172.944 69.9126 172.944 67.2494C172.944 64.5738 172.125 62.2122 170.642 60.3244C169.151 58.4488 167.409 57.5063 165.356 57.5063C163.305 57.5063 161.553 58.4488 160.071 60.3244C158.588 62.2115 157.77 64.5738 157.77 67.2494C157.77 69.9126 158.588 72.2865 160.071 74.1621C161.553 76.0485 163.304 76.9816 165.356 76.9816ZM240.761 53.0798H242.761C243.186 53.0798 243.528 53.2144 243.777 53.4945C244.035 53.7638 244.16 54.1367 244.16 54.6033C244.16 54.9151 244.098 55.1635 243.985 55.3499C243.872 55.5364 243.694 55.6927 243.455 55.8165L244.451 57.5272H243.31L242.512 56.1275H241.787V57.5272H240.761V53.0805V53.0798ZM242.761 55.2153C242.864 55.2153 242.958 55.1743 243.03 55.0807C243.094 54.9979 243.134 54.8834 243.134 54.7487V54.4579C243.134 54.3031 243.093 54.1886 243.03 54.1058C242.958 54.023 242.864 53.9819 242.761 53.9819H241.786V55.2153H242.761ZM242.409 60.3676C241.403 60.3676 240.553 60.1703 239.839 59.7758C239.123 59.3935 238.574 58.8225 238.19 58.0759C237.806 57.34 237.61 56.4587 237.61 55.4234C237.61 54.3967 237.806 53.5161 238.19 52.7695C238.574 52.0336 239.123 51.4634 239.839 51.0703C240.553 50.6757 241.403 50.4892 242.409 50.4892C243.414 50.4892 244.264 50.6757 244.979 51.0703C245.695 51.4634 246.244 52.0343 246.628 52.7695C247.012 53.5161 247.208 54.3974 247.208 55.4234C247.208 56.4595 247.012 57.34 246.628 58.0759C246.244 58.8225 245.695 59.3927 244.979 59.7758C244.264 60.1703 243.414 60.3676 242.409 60.3676ZM242.409 59.3402C243.548 59.3402 244.451 59.0306 245.114 58.4085C245.777 57.7857 246.109 56.9577 246.109 55.9108V54.9165C246.109 53.8797 245.777 53.0503 245.114 52.439C244.451 51.8378 243.548 51.5375 242.409 51.5375C241.28 51.5375 240.388 51.8378 239.724 52.439C239.061 53.051 238.728 53.8797 238.728 54.9165V55.9108C238.728 56.9584 239.061 57.7864 239.724 58.4085C240.388 59.0313 241.28 59.3402 242.409 59.3402Z" fill="black"/>
<path fill-rule="evenodd" clip-rule="evenodd" d="M7.69211 88.4619L0 80.7684V57.6921L7.69211 50L0 42.3079V19.2316L7.69211 11.5381L46.1539 50L7.69211 88.4619ZM5.41889 78.4952L7.69211 80.7684L38.4618 50L7.69211 19.2316L5.44024 21.4835V40.0547L15.3855 50L5.41889 59.9667V78.4952Z" fill="black"/>
<path fill-rule="evenodd" clip-rule="evenodd" d="M7.69238 50L57.6924 0H80.7687L100 19.2303L69.2305 50L100 80.7697L80.7687 100H57.6924L7.69238 50Z" fill="black"/>
</svg>
